# xmcd
#
# Track frame offsets: 
#        150
#        37998
#        52263
#        73873
#        92373
#        122478
#        154587
#        182849
#        206139
#        255389
#        292215
#
# Disc length: 4131 seconds
#
# Revision: 0
# Processed by: cddbd v1.5.2PL0 Copyright (c) Steve Scherf et al.
# Submitted via: ExactAudioCopy v0.99pb4
#
DISCID=9f10210b
DTITLE=Юрий Наумов - Рок как будто Блюз
DYEAR=2008
DGENRE=Blues
TTITLE0=Рок как будто Блюз
TTITLE1=Шкодный Блюз
TTITLE2=Никак не похоже на Блюз
TTITLE3=Звёздная Ночь
TTITLE4=Ночь На Хайвее
TTITLE5=Вера
TTITLE6=Всемирный Закон Торможения
TTITLE7=Пинг-Понг Блюз
TTITLE8=Космос
TTITLE9=Рождён Чтоб Играть
TTITLE10=Седьмая Глава
EXTD=
EXTT0=
EXTT1=
EXTT2=
EXTT3=
EXTT4=
EXTT5=
EXTT6=
EXTT7=
EXTT8=
EXTT9=
EXTT10=
PLAYORDER=
